# xmcd CD database file
#
# Track frame offsets:
#	150
#	26934
#	62350
#	82549
#	98990
#	123625
#	156116
#	183386
#	221377
#	240796
#
# Disc length: 3578 seconds
#
# Revision: 0
# Processed by: cddbd v1.5.2PL0 Copyright (c) Steve Scherf et al.
# Submitted via: CDex 1.51
#
DISCID=730df80a
DTITLE=Gene DiNovi - Flower of the night
DYEAR=1900
DGENRE=Jazz
TTITLE0=Akarenga Blues
TTITLE1=Canadian Sunset
TTITLE2=Day in Day Out
TTITLE3=Flower of the Night
TTITLE4=It's You or No One
TTITLE5=Miki
TTITLE6=Once Upon A Time
TTITLE7=Trolley Song
TTITLE8=Two For The Road
TTITLE9=Veronica
EXTD=
EXTT0=
EXTT1=
EXTT2=
EXTT3=
EXTT4=
EXTT5=
EXTT6=
EXTT7=
EXTT8=
EXTT9=
PLAYORDER=
